<svg width="35" height="35" viewBox="0 0 35 35" fill="none" xmlns="http://www.w3.org/2000/svg">
<path d="M17.5 0C7.83125 0 0 8.03457 0 17.9443C0 25.8742 5.01375 32.5988 11.9656 34.969C12.8406 35.138 13.1615 34.5832 13.1615 34.1062C13.1615 33.68 13.1469 32.551 13.1396 31.0556C8.27167 32.1383 7.245 28.6481 7.245 28.6481C6.44875 26.577 5.29812 26.0238 5.29812 26.0238C3.71292 24.9112 5.42063 24.9336 5.42063 24.9336C7.17792 25.0592 8.10104 26.7819 8.10104 26.7819C9.66146 29.5259 12.1975 28.7333 13.1979 28.2743C13.3554 27.1139 13.806 26.3228 14.3063 25.8742C10.4198 25.4256 6.335 23.8824 6.335 17.0067C6.335 15.0478 7.01313 13.4478 8.13604 12.1917C7.93917 11.7386 7.34854 9.91424 8.28917 7.44241C8.28917 7.44241 9.75479 6.9609 13.1017 9.2817C14.5017 8.88244 15.9892 8.68505 17.4767 8.67608C18.9642 8.68505 20.4517 8.88244 21.8517 9.2817C25.1767 6.9609 26.6423 7.44241 26.6423 7.44241C27.5829 9.91424 26.9923 11.7386 26.8173 12.1917C27.9329 13.4478 28.611 15.0478 28.611 17.0067C28.611 23.9003 24.5204 25.4181 20.6267 25.8593C21.2392 26.3976 21.8079 27.4982 21.8079 29.179C21.8079 31.5805 21.786 33.5095 21.786 34.0927C21.786 34.5638 22.0923 35.1245 22.9892 34.9451C29.9906 32.5914 35 25.8623 35 17.9443C35 8.03457 27.1644 0 17.5 0Z" fill="#252525"/>
</svg>
