<svg width="35" height="35" viewBox="0 0 35 35" fill="none" xmlns="http://www.w3.org/2000/svg">
<path d="M17.5 17.5C17.5 15.9529 18.4219 14.4692 20.0628 13.3752C21.7038 12.2812 23.9294 11.6667 26.25 11.6667C28.5706 11.6667 30.7962 12.2812 32.4372 13.3752C34.0781 14.4692 35 15.9529 35 17.5C35 19.0471 34.0781 20.5308 32.4372 21.6248C30.7962 22.7188 28.5706 23.3333 26.25 23.3333C23.9294 23.3333 21.7038 22.7188 20.0628 21.6248C18.4219 20.5308 17.5 19.0471 17.5 17.5ZM0 29.1667C0 27.6196 0.921872 26.1358 2.56282 25.0419C4.20376 23.9479 6.42936 23.3333 8.75 23.3333H17.5V29.1667C17.5 30.7138 16.5781 32.1975 14.9372 33.2915C13.2962 34.3854 11.0706 35 8.75 35C6.42936 35 4.20376 34.3854 2.56282 33.2915C0.921872 32.1975 0 30.7138 0 29.1667ZM17.5 0V11.6667H26.25C28.5706 11.6667 30.7962 11.0521 32.4372 9.95812C34.0781 8.86416 35 7.38043 35 5.83333C35 4.28624 34.0781 2.80251 32.4372 1.70854C30.7962 0.614582 28.5706 0 26.25 0L17.5 0ZM0 5.83333C0 7.38043 0.921872 8.86416 2.56282 9.95812C4.20376 11.0521 6.42936 11.6667 8.75 11.6667H17.5V0H8.75C6.42936 0 4.20376 0.614582 2.56282 1.70854C0.921872 2.80251 0 4.28624 0 5.83333ZM0 17.5C0 19.0471 0.921872 20.5308 2.56282 21.6248C4.20376 22.7188 6.42936 23.3333 8.75 23.3333H17.5V11.6667H8.75C6.42936 11.6667 4.20376 12.2812 2.56282 13.3752C0.921872 14.4692 0 15.9529 0 17.5Z" fill="#252525"/>
</svg>
