<svg width="35" height="35" viewBox="0 0 35 35" fill="none" xmlns="http://www.w3.org/2000/svg">
<path d="M34.338 15.9396L19.0561 0.659128C18.6324 0.237012 18.0587 0 17.4607 0C16.8626 0 16.2889 0.237012 15.8652 0.659128L12.6992 3.83101L16.7242 7.85602C17.1991 7.69514 17.7095 7.67068 18.1976 7.78541C18.6857 7.90014 19.1318 8.14946 19.4853 8.50506C19.8387 8.86065 20.0854 9.30825 20.1972 9.79701C20.309 10.2858 20.2815 10.7961 20.1177 11.27L23.994 15.1492C24.5677 14.9497 25.1921 14.951 25.7649 15.1528C26.3378 15.3546 26.8251 15.745 27.1471 16.2599C27.4691 16.7749 27.6066 17.384 27.5371 17.9874C27.4677 18.5908 27.1954 19.1527 26.7648 19.581C26.516 19.8303 26.2205 20.028 25.8952 20.1629C25.5699 20.2978 25.2212 20.3672 24.869 20.3672C24.5168 20.3672 24.1681 20.2978 23.8428 20.1629C23.5175 20.028 23.222 19.8303 22.9732 19.581C22.6003 19.2071 22.3456 18.7318 22.2409 18.2142C22.1361 17.6966 22.1859 17.1597 22.384 16.6702L18.7542 13.0594V22.575C19.0109 22.7004 19.253 22.871 19.4659 23.0825C19.9653 23.5871 20.2454 24.2684 20.2454 24.9783C20.2454 25.6883 19.9653 26.3696 19.4659 26.8742C19.2161 27.1241 18.9196 27.3225 18.5931 27.4577C18.2667 27.593 17.9168 27.6627 17.5635 27.6627C17.2101 27.6627 16.8602 27.593 16.5338 27.4577C16.2074 27.3225 15.9108 27.1241 15.6611 26.8742C15.4118 26.6257 15.214 26.3305 15.079 26.0054C14.944 25.6803 14.8745 25.3318 14.8745 24.9798C14.8745 24.6278 14.944 24.2793 15.079 23.9542C15.214 23.6291 15.4118 23.3339 15.6611 23.0854C15.9265 22.8229 16.2254 22.6246 16.5434 22.4933V12.8844C16.216 12.7505 15.9184 12.5531 15.6678 12.3035C15.4173 12.0539 15.2187 11.7571 15.0836 11.4302C14.9485 11.1033 14.8796 10.7529 14.8809 10.3993C14.8821 10.0456 14.9535 9.69567 15.0909 9.36977L11.1359 5.3958L0.656251 15.8681C-0.21875 16.7504 -0.21875 18.1781 0.656251 19.0604L15.9396 34.3394C16.1489 34.5488 16.3973 34.715 16.6708 34.8284C16.9443 34.9417 17.2375 35.0001 17.5336 35.0001C17.8296 35.0001 18.1228 34.9417 18.3963 34.8284C18.6698 34.715 18.9183 34.5488 19.1275 34.3394L34.338 19.129C34.5478 18.9198 34.7143 18.6712 34.8279 18.3976C34.9415 18.1239 35 17.8306 35 17.5343C35 17.238 34.9415 16.9446 34.8279 16.6709C34.7143 16.3973 34.5478 16.1488 34.338 15.9396Z" fill="#252525"/>
</svg>
