<svg fill="none" viewBox="0 0 35 35" xmlns="http://www.w3.org/2000/svg">
<path d="m0 0h35v35h-35v-35zm32.133 26.652c-0.2552-1.5969-1.295-2.9385-4.3794-4.1898-1.0733-0.5031-2.2662-0.8531-2.6206-1.6625-0.1327-0.4812-0.1531-0.7437-0.0671-1.0281 0.2188-0.9421 1.3344-1.225 2.2094-0.9625 0.5688 0.175 1.0938 0.6125 1.4233 1.3125 1.508-0.9858 1.508-0.9858 2.5594-1.6406-0.3937-0.6125-0.5891-0.8765-0.8546-1.1375-0.9187-1.0282-2.1423-1.5532-4.1329-1.508l-1.0281 0.1298c-0.9858 0.2407-1.925 0.7657-2.4938 1.4657-1.6625 1.8827-1.1827 5.1639 0.8298 6.5202 1.9907 1.4875 4.9015 1.8141 5.2734 3.2156 0.35 1.7062-1.2688 2.2531-2.8671 2.0562-1.1827-0.2625-1.8375-0.8545-2.5594-1.9483l-2.6687 1.5327c0.3062 0.7 0.6562 1.0048 1.1812 1.6173 2.5375 2.5608 8.8813 2.4296 10.02-1.4642 0.0423-0.1312 0.35-1.0281 0.1079-2.4062l0.0671 0.0977zm-13.1-10.566h-3.2783c0 2.8262-0.0132 5.635-0.0132 8.4656 0 1.7967 0.0919 3.446-0.2012 3.9535-0.4812 1.0048-1.7208 0.8765-2.2837 0.7-0.5775-0.2858-0.8707-0.6795-1.2105-1.2468-0.0918-0.1532-0.1604-0.2859-0.1852-0.2859l-2.6614 1.6407c0.44479 0.9187 1.0937 1.7091 1.9308 2.2123 1.2469 0.7437 2.9225 0.9843 4.6769 0.5906 1.1419-0.3296 2.1262-1.0077 2.641-2.0577 0.7438-1.3563 0.5863-3.0188 0.579-4.8796 0.0175-2.9954 0-5.9923 0-9.0111l0.0058-0.0816z" fill="#252525"/>
</svg>
