<svg width="43" height="43" viewBox="0 0 43 43" fill="none" xmlns="http://www.w3.org/2000/svg">
<g filter="url(#filter0_d_1_25)">
<path d="M6.22419 8.21822C3.1243 12.842 3.50832 18.856 5.87813 23.7663C5.93216 23.8861 5.99202 23.9998 6.05043 24.1135C6.08401 24.1923 6.12198 24.2651 6.16286 24.3393C6.18184 24.3818 6.20812 24.4258 6.23149 24.4652C6.26945 24.544 6.31033 24.6198 6.34976 24.6956L6.579 25.0973C6.62134 25.1716 6.66223 25.2444 6.71041 25.3187C6.79072 25.4612 6.88563 25.6022 6.96886 25.7447C7.00682 25.8038 7.04187 25.8629 7.08421 25.922C7.22582 26.153 7.37684 26.3776 7.53685 26.5952C7.65075 26.7574 7.76464 26.915 7.88729 27.0727C7.92671 27.1303 7.97052 27.1879 8.0114 27.2455L8.33409 27.6533C8.37352 27.7003 8.41294 27.7549 8.45528 27.8034C8.59838 27.9823 8.75023 28.1566 8.90209 28.3325C8.90209 28.3355 8.90647 28.3386 8.90939 28.3431C9.09431 28.5859 9.30166 28.8093 9.52849 29.0101C9.6453 29.1344 9.76211 29.2588 9.88622 29.38L10.0337 29.5271C10.1958 29.6848 10.3578 29.8424 10.5287 29.994C10.5316 29.994 10.5331 29.9971 10.536 29.9986L10.6192 30.0744C10.7681 30.2093 10.9185 30.3442 11.0719 30.4685L11.2544 30.6277C11.3785 30.7308 11.507 30.8293 11.634 30.9309L11.8326 31.0886C11.9684 31.1947 12.1129 31.2993 12.2517 31.4024C12.3028 31.4403 12.3539 31.4782 12.4064 31.513L12.4488 31.5479L12.8591 31.8284L13.0343 31.9497C13.2489 32.0922 13.4621 32.2271 13.6738 32.3605C13.7352 32.3923 13.7965 32.4272 13.8534 32.4636C14.0111 32.5576 14.1747 32.6531 14.3338 32.741C14.4214 32.7926 14.512 32.8365 14.6025 32.8835C14.712 32.9472 14.8259 33.0093 14.9427 33.073C14.9709 33.082 14.9983 33.0936 15.0245 33.1079C15.0726 33.1306 15.1179 33.1549 15.1646 33.1791C15.3399 33.2701 15.5224 33.3565 15.7122 33.4429C15.7472 33.4581 15.7852 33.4732 15.8232 33.4945C16.0334 33.59 16.2437 33.6809 16.4612 33.7704C16.5109 33.7855 16.5635 33.8113 16.6146 33.831C16.8117 33.9083 17.0146 33.9872 17.2147 34.0614L17.2877 34.0887C17.5111 34.1676 17.7316 34.2434 17.9579 34.3161C18.0105 34.3313 18.0645 34.351 18.12 34.3662C18.3521 34.4389 18.577 34.5253 18.8106 34.5723C33.7917 37.4072 38.1458 25.2201 38.1458 25.2201C34.4882 30.1653 27.9978 31.4691 21.8506 30.0183C21.6228 29.9637 21.3951 29.8879 21.1658 29.8182C20.8879 29.733 20.6119 29.6415 20.3379 29.5438L20.2474 29.5074C20.0488 29.4376 19.8575 29.3603 19.6633 29.283C19.6105 29.2603 19.557 29.2395 19.5027 29.2209C19.2881 29.1314 19.0793 29.0389 18.8719 28.9434C18.8267 28.9283 18.7887 28.9071 18.7434 28.8889C18.567 28.8045 18.3913 28.7186 18.2163 28.6311C18.1638 28.607 18.1121 28.5807 18.0616 28.5523C17.9243 28.4856 17.7871 28.4098 17.6527 28.337C17.5605 28.2911 17.4694 28.2425 17.3797 28.1915C17.2147 28.1005 17.0497 28.002 16.8847 27.908C16.835 27.8716 16.7781 27.8413 16.7211 27.8079C16.5059 27.6756 16.2927 27.5397 16.0816 27.4001C16.0229 27.3623 15.9654 27.3223 15.9093 27.2804C15.7544 27.1812 15.6024 27.0771 15.4537 26.9681C15.4026 26.9332 15.3559 26.8953 15.3033 26.8574C15.1583 26.7531 15.0152 26.646 14.8741 26.536C14.8127 26.4845 14.747 26.436 14.6813 26.3844C14.5528 26.2798 14.4229 26.1798 14.2944 26.0691L14.1221 25.9266C13.9567 25.7881 13.7941 25.6461 13.6344 25.5006C13.6178 25.4837 13.5997 25.4685 13.5804 25.4551L13.0737 24.9761L12.9277 24.8336C12.808 24.7077 12.6853 24.5865 12.5627 24.4621L12.421 24.3105C12.2668 24.1512 12.1163 23.9879 11.9698 23.8209L11.9479 23.7966C11.7933 23.6198 11.641 23.4409 11.4909 23.26C11.4515 23.213 11.415 23.1629 11.3741 23.1129L11.0441 22.693C10.8758 22.4689 10.7103 22.2425 10.5477 22.0138C7.13823 17.1808 5.90442 10.5104 8.63342 5.03918M15.8421 4.32363C13.595 7.67247 13.722 12.1507 15.4713 15.6921C15.7604 16.2882 16.0907 16.8617 16.4598 17.4082C16.7956 17.9085 17.1665 18.4997 17.6162 18.903C17.7725 19.0879 17.9418 19.2668 18.1185 19.4472L18.2499 19.5837C18.4164 19.7504 18.5872 19.9141 18.761 20.0764L18.7829 20.0961C18.9798 20.2746 19.1814 20.4474 19.3874 20.6145C19.437 20.6494 19.4794 20.6903 19.5275 20.7252C19.732 20.8889 19.9378 21.0466 20.151 21.2027L20.1729 21.2164C20.2635 21.2846 20.3598 21.3468 20.462 21.4135C20.5029 21.4408 20.5496 21.4771 20.5934 21.5044C20.7482 21.6075 20.9001 21.7045 21.0563 21.8031C21.0811 21.8137 21.103 21.8273 21.1264 21.8379C21.2578 21.9213 21.4009 22.0017 21.5382 22.076C21.5863 22.1063 21.6331 22.129 21.6827 22.1578C21.7805 22.2079 21.8769 22.2609 21.9704 22.3125L22.0171 22.3337C22.2142 22.4337 22.4157 22.5277 22.6128 22.6217C22.6625 22.6414 22.7048 22.6581 22.7472 22.6793C22.9092 22.7521 23.0742 22.8218 23.2363 22.887C23.3093 22.9128 23.3779 22.9431 23.4466 22.9659C23.5955 23.0235 23.7517 23.0765 23.8992 23.1296L24.1036 23.1978C24.3168 23.266 24.5329 23.3555 24.7578 23.3934C36.3221 25.3839 39 16.1363 39 16.1363C36.5893 19.7383 31.9241 21.4544 26.9524 20.1143C26.7325 20.0552 26.5144 19.9894 26.2982 19.9172C26.2281 19.8975 26.1668 19.8747 26.0996 19.8535C25.9478 19.7989 25.7915 19.7459 25.6441 19.6883L25.4338 19.6064C25.2703 19.5382 25.1038 19.4745 24.9447 19.4017C24.895 19.379 24.8498 19.3638 24.8118 19.3411C24.6074 19.2456 24.4015 19.1516 24.2029 19.05L23.9021 18.8878L23.7284 18.7969C23.5975 18.7247 23.4684 18.6488 23.3414 18.5695C23.3103 18.5541 23.2801 18.5369 23.2509 18.5179C23.0961 18.4179 22.9355 18.3208 22.788 18.2177C22.7384 18.1889 22.6931 18.1541 22.6464 18.1238L22.3427 17.9176C22.1324 17.766 21.9266 17.6023 21.7192 17.4446C21.6725 17.4006 21.6272 17.3642 21.582 17.3248C19.3961 15.5405 17.6717 13.1013 16.854 10.3391C15.9925 7.46781 16.1824 4.24783 17.6702 1.63425M23.9299 1.41139C22.6041 3.4307 22.477 5.93816 23.3896 8.16516C24.3592 10.5301 26.342 12.3872 28.652 13.2665C28.7469 13.3044 28.8389 13.3362 28.9367 13.3726L29.0652 13.4135C29.1995 13.4575 29.3353 13.5091 29.474 13.5409C35.8636 14.8204 37.5924 10.1344 38.0582 9.44618C36.5367 11.7141 33.9859 12.2584 30.8568 11.4685C30.6015 11.4023 30.35 11.3213 30.1034 11.226C29.7968 11.1141 29.496 10.9856 29.2024 10.8409C28.6468 10.5613 28.1186 10.2262 27.6255 9.84034C24.822 7.63608 23.0859 3.42767 24.914 0" fill="#252525"/>
</g>
<defs>
<filter id="filter0_d_1_25" x="0" y="0" width="43" height="43" filterUnits="userSpaceOnUse" color-interpolation-filters="sRGB">
<feFlood flood-opacity="0" result="BackgroundImageFix"/>
<feColorMatrix in="SourceAlpha" type="matrix" values="0 0 0 0 0 0 0 0 0 0 0 0 0 0 0 0 0 0 127 0" result="hardAlpha"/>
<feOffset dy="4"/>
<feGaussianBlur stdDeviation="2"/>
<feComposite in2="hardAlpha" operator="out"/>
<feColorMatrix type="matrix" values="0 0 0 0 0 0 0 0 0 0 0 0 0 0 0 0 0 0 0.25 0"/>
<feBlend mode="normal" in2="BackgroundImageFix" result="effect1_dropShadow_1_25"/>
<feBlend mode="normal" in="SourceGraphic" in2="effect1_dropShadow_1_25" result="shape"/>
</filter>
</defs>
</svg>
