<svg width="35" height="35" viewBox="0 0 35 35" fill="none" xmlns="http://www.w3.org/2000/svg">
<path d="M17.4975 35C16.9696 35 16.4434 34.8775 15.9813 34.6398L11.153 32.1067C10.4327 31.7494 10.7847 31.6225 11.0215 31.5482C11.9835 31.2521 12.1776 31.1836 13.2054 30.6673C13.3123 30.6134 13.4537 30.6338 13.5639 30.6921L17.2739 32.6448C17.3428 32.6772 17.4195 32.6942 17.4975 32.6942C17.5755 32.6942 17.6523 32.6772 17.7212 32.6448L32.1846 25.2424C32.252 25.2064 32.3078 25.1554 32.3464 25.0946C32.385 25.0338 32.4052 24.9651 32.405 24.8953V10.0934C32.4048 10.0223 32.384 9.95253 32.3446 9.8907C32.3051 9.82888 32.2483 9.77713 32.1797 9.74048L17.7228 2.34389C17.6547 2.31018 17.578 2.29248 17.5 2.29248C17.422 2.29248 17.3453 2.31018 17.2772 2.34389L2.82361 9.74194C2.75472 9.77821 2.6975 9.82959 2.65747 9.89114C2.61744 9.95269 2.59593 10.0223 2.59503 10.0934V24.8953C2.59535 24.9653 2.6167 25.0339 2.65687 25.0942C2.69705 25.1544 2.75461 25.2041 2.82361 25.238L6.78523 27.268C8.9346 28.2217 10.2518 27.0988 10.2518 25.9701V11.3563C10.2518 11.1492 10.4393 10.9873 10.6728 10.9873H12.5065C12.735 10.9873 12.9258 11.1507 12.9258 11.3563V25.9701C12.9258 28.5149 11.3635 29.9732 8.64352 29.9732C7.80811 29.9732 7.14866 29.9732 5.31175 29.1696L1.51623 27.2345C1.05488 26.9962 0.672072 26.6548 0.406015 26.2444C0.139958 25.8339 -3.90871e-05 25.3687 8.18604e-09 24.8953V10.0934C8.18604e-09 9.13236 0.58051 8.23404 1.51623 7.75571L15.9797 0.344539C16.4456 0.118483 16.9681 0 17.4992 0C18.0303 0 18.5528 0.118483 19.0187 0.344539L33.4805 7.75571C34.4178 8.2355 35 9.13236 35 10.0934V24.8953C34.999 25.3689 34.8583 25.834 34.5917 26.2444C34.3251 26.6548 33.942 26.9961 33.4805 27.2345L19.0187 34.6398C18.5582 34.8775 18.0336 35 17.4975 35ZM29.1752 20.4066C29.1752 17.6358 27.0636 16.8979 22.6185 16.3773C18.1274 15.8508 17.6702 15.5781 17.6702 14.6463C17.6702 13.8763 18.0567 12.8482 21.3835 12.8482C24.3551 12.8482 25.4504 13.4154 25.901 15.1917C25.9215 15.2737 25.9729 15.3472 26.0467 15.3999C26.1205 15.4526 26.2124 15.4816 26.3071 15.4819H28.1835C28.2408 15.4814 28.2974 15.4707 28.35 15.4504C28.4025 15.4301 28.4499 15.4006 28.4894 15.3638C28.5291 15.3255 28.5594 15.2803 28.5784 15.2311C28.5974 15.1819 28.6046 15.1297 28.5996 15.0779C28.3085 12.0184 26.0161 10.5921 21.3835 10.5921C17.2591 10.5921 14.7989 12.135 14.7989 14.7236C14.7989 17.5308 17.2459 18.3066 21.2042 18.6537C25.9404 19.065 26.3071 19.6789 26.3071 20.5043C26.3071 21.9378 25.0096 22.5489 21.9624 22.5489C18.1356 22.5489 17.2936 21.6972 17.0108 20.0085C16.9951 19.9208 16.9445 19.841 16.8682 19.7835C16.7918 19.7259 16.6948 19.6946 16.5947 19.695H14.7249C14.6701 19.6946 14.6157 19.7038 14.5649 19.7222C14.5141 19.7406 14.468 19.7678 14.4291 19.8021C14.3903 19.8364 14.3595 19.8772 14.3386 19.9222C14.3176 19.9671 14.307 20.0153 14.3072 20.0639C14.3072 22.2251 15.6327 24.8005 21.9624 24.8005C26.5472 24.802 29.1752 23.2022 29.1752 20.4066Z" fill="#252525"/>
</svg>
