<svg width="35" height="35" viewBox="0 0 35 35" fill="none" xmlns="http://www.w3.org/2000/svg">
<path d="M25.1447 0C23.7429 0.0101157 22.3493 0.207886 21.0034 0.587714L20.9087 0.616881C20.0597 0.471319 19.2002 0.390862 18.3382 0.376253C16.5674 0.347086 15.0462 0.764174 13.8196 1.45835C12.611 1.05147 10.1037 0.350003 7.46107 0.490004C5.62116 0.587714 3.61289 1.13022 2.12472 2.65419C0.64107 4.17816 -0.143598 6.53631 0.021753 9.74467C0.0668489 10.6299 0.326902 12.0737 0.758319 13.9433C1.18974 15.8129 1.79552 18.0018 2.55163 19.9983C3.30774 21.9962 4.136 23.79 5.43025 25.0092C6.07662 25.6202 6.96651 26.1336 8.01575 26.0913C8.75231 26.0621 9.41823 25.7486 9.99245 25.2863C10.272 25.6436 10.5712 25.7996 10.8433 25.944C11.186 26.1263 11.5197 26.2502 11.8654 26.3319C12.4862 26.4821 13.549 26.6834 14.7937 26.4777C15.2176 26.4092 15.664 26.275 16.1089 26.084C16.1255 26.5652 16.145 27.0363 16.1646 27.5132C16.2262 29.024 16.2653 30.4196 16.7328 31.6432C16.8079 31.843 17.0139 32.8726 17.8256 33.7811C18.6373 34.6911 20.2277 35.2584 22.0391 34.8822C23.3168 34.6168 24.9417 34.1384 26.021 32.648C27.0883 31.1751 27.5693 29.0619 27.664 25.6348C27.6855 25.4706 27.7131 25.3071 27.7467 25.1448L28.0007 25.1667H28.0308C29.3942 25.2265 30.8733 25.0384 32.109 24.4813C33.2033 23.9898 34.0315 23.4925 34.6343 22.6102C34.7846 22.3915 34.95 22.1275 34.9951 21.6725C35.0402 21.2175 34.7711 20.5058 34.3247 20.1777C33.4303 19.5185 32.8681 19.7693 32.2653 19.8904C31.6715 20.0177 31.0664 20.0891 30.4585 20.1033C32.1961 17.2639 33.4423 14.248 34.1533 11.5793C34.5742 10.0043 34.8102 8.55174 34.8297 7.28152C34.8493 6.0113 34.7426 4.88692 33.9579 3.9142C31.5062 0.875008 28.0594 0.0350003 25.3927 0.00583339C25.31 0.00437504 25.2273 0.00291669 25.1447 0.00437504V0ZM25.074 0.933342C27.5964 0.910008 30.8192 1.59689 33.1326 4.46546C33.6527 5.11005 33.8076 6.05214 33.7895 7.21298C33.77 8.37237 33.549 9.76071 33.1447 11.2818C32.36 14.2276 30.8778 17.662 28.7899 20.7435C28.8636 20.7943 28.9434 20.8365 29.0274 20.8689C29.4633 21.0439 30.457 21.1941 32.4397 20.7989C32.9387 20.6969 33.304 20.6283 33.6828 20.9083C33.7749 20.984 33.8476 21.0794 33.8953 21.1869C33.943 21.2944 33.9645 21.4112 33.9579 21.5281C33.9377 21.7051 33.8703 21.874 33.7625 22.0181C33.3792 22.5767 32.6231 23.106 31.6535 23.5421C30.7952 23.93 29.564 24.1327 28.4727 24.1444C27.9256 24.1502 27.4205 24.1094 26.9921 23.9796L26.965 23.9694C26.7997 25.5152 26.4194 28.5676 26.1713 29.9603C25.9729 31.0832 25.6257 31.9757 24.9628 32.6436C24.3014 33.3116 23.3649 33.7141 22.1052 33.9766C20.5449 34.3018 19.407 33.9518 18.6734 33.3524C17.9413 32.7545 17.6061 31.9611 17.4047 31.4755C17.2664 31.1401 17.1943 30.7055 17.1251 30.1251C17.056 29.5446 17.0049 28.8344 16.9703 28.0338C16.9242 26.8079 16.9092 25.581 16.9252 24.3544C16.2734 24.9336 15.4635 25.3183 14.5922 25.4627C13.5565 25.6334 12.6321 25.4656 12.0804 25.3315C11.8084 25.2652 11.5459 25.1668 11.2987 25.0384C11.0432 24.9056 10.7997 24.7554 10.6373 24.4594C10.5419 24.2898 10.5116 24.093 10.5516 23.9038C10.6024 23.712 10.7178 23.5421 10.8793 23.421C11.177 23.1863 11.5708 23.055 12.1646 22.9354C13.2454 22.7196 13.6227 22.5723 13.8527 22.3958C14.0481 22.2442 14.269 21.9379 14.6599 21.4887C14.658 21.4688 14.6565 21.4489 14.6554 21.4289C13.9559 21.4098 13.2709 21.231 12.6561 20.9069C12.4306 21.1373 11.2792 22.3185 9.8752 23.9577C9.28444 24.6431 8.63206 25.0369 7.94359 25.0646C7.25513 25.0938 6.63281 24.7569 6.10368 24.2596C5.04693 23.2635 4.20364 21.55 3.46858 19.6133C2.73502 17.6766 2.13825 15.5197 1.71435 13.6822C1.28895 11.8447 1.03791 10.363 1.00184 9.64842C0.844001 6.61214 1.57606 4.56608 2.83122 3.27545C4.0879 1.98481 5.81056 1.49626 7.48963 1.40293C10.5035 1.23522 13.3656 2.2546 13.9443 2.47336C15.0597 1.73835 16.4968 1.28043 18.2916 1.3096C19.1437 1.32119 19.9915 1.42786 20.8185 1.62751L20.8485 1.61439C21.2125 1.49026 21.5834 1.38607 21.9594 1.3023C22.9804 1.07124 24.0242 0.9485 25.0725 0.936258L25.074 0.933342ZM25.3025 1.91043H25.083C24.2218 1.92209 23.3639 2.01587 22.5216 2.19044C24.3946 2.99544 25.8091 4.23504 26.8057 5.47172C27.498 6.32797 28.0702 7.26952 28.5073 8.27174C28.6727 8.65674 28.7839 8.98196 28.847 9.23425C28.8786 9.36113 28.8996 9.46759 28.9072 9.57842C28.9131 9.64891 28.907 9.71986 28.8891 9.78842C28.8891 9.7928 28.8816 9.803 28.8801 9.80738C28.9252 11.0849 28.599 11.9511 28.5599 13.1703C28.5299 14.0541 28.7628 15.0924 28.82 16.2256C28.8741 17.2902 28.7418 18.4597 28.0293 19.6075C28.0894 19.6775 28.1435 19.7475 28.2007 19.8175C30.0857 16.9372 31.4445 13.7507 32.1691 11.0338C32.5569 9.57113 32.7629 8.24549 32.7809 7.19548C32.7959 6.14547 32.5945 5.38422 32.3374 5.0663C30.3202 2.56377 27.5904 1.92793 25.3025 1.91043ZM18.1022 2.28377C16.3254 2.28815 15.0507 2.80878 14.0841 3.58899C13.0875 4.39546 12.4186 5.49942 11.9797 6.62964C11.4581 7.97132 11.2792 9.26925 11.2085 10.1501L11.2281 10.1384C11.7647 9.84676 12.4697 9.55509 13.2243 9.38592C13.9789 9.21821 14.7921 9.16571 15.5287 9.44279C16.2653 9.71988 16.8741 10.3718 17.095 11.3605C18.1533 16.1104 16.7658 17.8764 16.2548 19.2093C16.0609 19.6925 15.8948 20.1857 15.7572 20.6866C15.8218 20.6721 15.8865 20.6546 15.9511 20.6487C16.3119 20.6196 16.5945 20.7362 16.7628 20.8062C17.2769 21.0133 17.6302 21.4479 17.8211 21.9437C17.8707 22.0735 17.9068 22.2135 17.9278 22.3579C17.95 22.4172 17.9602 22.4801 17.9579 22.5431C17.9009 24.3599 17.9074 26.1781 17.9774 27.9944C18.012 28.779 18.0631 29.4703 18.1277 30.0157C18.1924 30.5597 18.2841 30.9738 18.3427 31.1138C18.5351 31.5805 18.8162 32.1915 19.3243 32.6072C19.8324 33.0213 20.5614 33.2984 21.8932 33.0213C23.0477 32.7807 23.7602 32.4468 24.2367 31.967C24.7117 31.4872 24.9958 30.8192 25.1777 29.7969C25.4498 28.2657 25.997 23.825 26.0631 22.9894C26.033 22.3594 26.1292 21.8752 26.3367 21.5062C26.5501 21.1271 26.8808 20.8952 27.1665 20.7698C27.3093 20.7071 27.443 20.6648 27.5528 20.6341C27.4366 20.4722 27.3148 20.3141 27.1875 20.1602C26.7757 19.6757 26.4385 19.1358 26.1864 18.5575C26.0656 18.3186 25.9368 18.0837 25.8 17.8531C25.6001 17.5031 25.3476 17.0656 25.083 16.5741C24.5539 15.5897 23.9782 14.3968 23.679 13.2345C23.3814 12.0737 23.3378 10.872 24.1014 10.0247C24.7779 9.27217 25.9654 8.96008 27.7482 9.13508C27.6956 8.98196 27.664 8.85508 27.5753 8.65091C27.1723 7.73053 26.6462 6.8656 26.0105 6.07839C24.4998 4.20441 22.0541 2.34648 18.2751 2.28669H18.1022V2.28377ZM8.11796 2.3596C7.92706 2.3596 7.73615 2.36544 7.54675 2.37565C6.02852 2.46023 4.59297 2.88753 3.56629 3.94337C2.5381 4.99921 1.86166 6.73027 2.00898 9.59592C2.03754 10.1384 2.28106 11.658 2.69894 13.4635C3.11533 15.2689 3.70608 17.3937 4.41559 19.2706C5.1266 21.1475 5.98793 22.7808 6.80567 23.5538C7.21755 23.9402 7.57531 24.0963 7.9 24.0831C8.22619 24.0686 8.61853 23.8863 9.09805 23.3277C9.97231 22.3046 10.8797 21.3085 11.8188 20.341C11.1525 19.7797 10.6425 19.0647 10.3359 18.2619C10.0294 17.459 9.93604 16.5942 10.0646 15.7472C10.2194 14.6695 10.2405 13.6618 10.2224 12.8655C10.2044 12.0897 10.1473 11.5734 10.1473 11.2511C10.147 11.2419 10.147 11.2327 10.1473 11.2234V11.2161L10.1458 11.2074C10.1449 9.52854 10.446 7.86095 11.0357 6.28256C11.4566 5.19755 12.0834 4.09504 13.0229 3.20253C12.0999 2.90794 10.4614 2.45877 8.68767 2.37419C8.49742 2.36471 8.30846 2.35985 8.11796 2.3596ZM26.7546 10.0626C25.7339 10.0757 25.1612 10.3309 24.8606 10.6649C24.4351 11.1389 24.3946 11.9701 24.6591 12.9939C24.9222 14.0191 25.4663 15.1653 25.9774 16.1176C26.233 16.5945 26.481 17.0233 26.6809 17.3718C26.8824 17.7218 27.0297 17.9697 27.1199 18.1812C27.2025 18.3766 27.2942 18.5487 27.3874 18.7091C27.7828 17.8997 27.8534 17.1049 27.8128 16.2766C27.7602 15.2514 27.5152 14.2028 27.5513 13.1412C27.5919 11.9001 27.8444 11.0922 27.8669 10.1326C27.4981 10.0862 27.1265 10.0629 26.7546 10.0626ZM14.3773 10.2303C14.0655 10.2331 13.7549 10.2693 13.4513 10.3382C12.8462 10.4809 12.2633 10.7011 11.7181 10.993C11.5337 11.089 11.3582 11.2002 11.1935 11.3255L11.1604 11.3547C11.1694 11.5676 11.213 12.0839 11.2311 12.8437C11.2491 13.6749 11.2281 14.7351 11.0627 15.8829C10.7035 18.3766 12.5689 20.4416 14.7606 20.4446C14.8884 19.9327 15.0988 19.4135 15.3092 18.8666C15.9195 17.2712 17.1206 16.1074 16.1089 11.5661C15.9436 10.8224 15.6159 10.522 15.1649 10.3528C14.9122 10.2661 14.6453 10.2246 14.3773 10.2303ZM26.2781 10.5278H26.3532C26.4443 10.5294 26.535 10.5402 26.6238 10.5599C26.705 10.5774 26.7741 10.6036 26.8312 10.6401C26.8606 10.6577 26.8857 10.6811 26.9051 10.7087C26.9246 10.7363 26.9378 10.7676 26.944 10.8005L26.9425 10.8122C26.9454 10.8814 26.9271 10.9499 26.8899 11.0091C26.8455 11.0891 26.7899 11.1627 26.7245 11.2278C26.572 11.3907 26.3678 11.4995 26.1443 11.537C25.9268 11.5625 25.7072 11.509 25.528 11.3868C25.4546 11.3389 25.3888 11.2809 25.3326 11.2147C25.2839 11.1627 25.2511 11.0985 25.2379 11.0295C25.2347 10.9958 25.2387 10.9619 25.2496 10.9298C25.2604 10.8977 25.2779 10.8681 25.301 10.8428C25.3503 10.7884 25.41 10.7439 25.4769 10.7116C25.6212 10.6328 25.8166 10.5745 26.0376 10.5424C26.1202 10.5307 26.2014 10.5249 26.2781 10.5234V10.5278ZM14.5231 10.7728C14.6027 10.7728 14.6869 10.7801 14.7726 10.7918C15.0026 10.8224 15.207 10.8822 15.3634 10.9697C15.4396 11.0083 15.5075 11.0608 15.5633 11.1243C15.5937 11.1579 15.6166 11.1974 15.6305 11.24C15.6445 11.2827 15.6492 11.3277 15.6445 11.3722C15.63 11.456 15.5909 11.534 15.5317 11.5968C15.4702 11.67 15.3978 11.7339 15.3168 11.7864C15.1213 11.9207 14.8811 11.9795 14.6433 11.9511C14.4003 11.9124 14.1779 11.7952 14.012 11.6186C13.9414 11.5475 13.8817 11.467 13.8346 11.3795C13.7851 11.3025 13.7634 11.2116 13.773 11.1214C13.7955 10.9638 13.9293 10.8822 14.0601 10.837C14.2091 10.7908 14.3654 10.771 14.5216 10.7786L14.5231 10.7728ZM28.142 21.4814L28.1375 21.4829C27.9165 21.5602 27.7347 21.5923 27.5813 21.6579C27.4263 21.7158 27.2985 21.8268 27.2221 21.97C27.1274 22.1377 27.0462 22.4352 27.0703 22.9412C27.1383 22.9867 27.2134 23.0211 27.2927 23.0433C27.5498 23.1192 27.9812 23.1688 28.4622 23.1615C29.4212 23.1513 30.6013 22.934 31.2281 22.651C31.7423 22.4193 32.2197 22.1172 32.6456 21.7542C30.5517 22.1742 29.3671 22.0619 28.6411 21.7717C28.4608 21.6989 28.2926 21.602 28.142 21.4814ZM16.0699 21.6185H16.0383C15.9586 21.6258 15.8429 21.6521 15.6189 21.8927C15.0958 22.4615 14.9124 22.8187 14.481 23.1527C14.0496 23.4852 13.4889 23.6631 12.369 23.8863C12.1298 23.9277 11.897 23.9982 11.676 24.0963C11.7196 24.1313 11.7151 24.14 11.7812 24.1736C11.9451 24.2611 12.1555 24.3383 12.3254 24.3806C12.8064 24.4973 13.5971 24.6329 14.4224 24.4973C15.2476 24.3602 16.1059 23.9767 16.838 22.9806C16.9643 22.8085 16.9778 22.5548 16.8741 22.2821C16.7689 22.0094 16.5389 21.7746 16.3765 21.7089C16.2799 21.6637 16.1763 21.6342 16.0699 21.6214V21.6185Z" fill="#252525"/>
</svg>
