<svg width="35" height="35" viewBox="0 0 35 35" fill="none" xmlns="http://www.w3.org/2000/svg">
<path d="M17.5 13.9932C17.0904 13.9932 16.6847 14.0839 16.3063 14.2601C15.9278 14.4363 15.5839 14.6945 15.2943 15.0201C15.0046 15.3457 14.7748 15.7322 14.6181 16.1575C14.4613 16.5829 14.3806 17.0388 14.3806 17.4992C14.3806 17.9596 14.4613 18.4155 14.6181 18.8409C14.7748 19.2663 15.0046 19.6527 15.2943 19.9783C15.5839 20.3039 15.9278 20.5621 16.3063 20.7383C16.6847 20.9145 17.0904 21.0052 17.5 21.0052C17.9096 21.0052 18.3153 20.9145 18.6937 20.7383C19.0722 20.5621 19.4161 20.3039 19.7057 19.9783C19.9954 19.6527 20.2252 19.2663 20.3819 18.8409C20.5387 18.4155 20.6194 17.9596 20.6194 17.4992C20.6194 17.0388 20.5387 16.5829 20.3819 16.1575C20.2252 15.7322 19.9954 15.3457 19.7057 15.0201C19.4161 14.6945 19.0722 14.4363 18.6937 14.2601C18.3153 14.0839 17.9096 13.9932 17.5 13.9932ZM8.76167 24.4735L8.07333 24.2768C2.94292 22.8196 0 20.3463 0 17.4927C0 14.639 2.94292 12.1657 8.07333 10.7085L8.76167 10.5135L8.95562 11.2806C9.47535 13.2929 10.1401 15.2542 10.9433 17.1452L11.0906 17.4943L10.9433 17.8434C10.1388 19.7337 9.47397 21.6952 8.95562 23.708L8.76167 24.4735ZM7.75396 12.5C3.85437 13.731 1.46125 15.6143 1.46125 17.4927C1.46125 19.3694 3.85437 21.2527 7.75396 22.4853C8.23087 20.7805 8.80669 19.1127 9.47771 17.4927C8.80592 15.8729 8.23008 14.2051 7.75396 12.5ZM26.2383 24.4735L26.0444 23.7047C25.5252 21.6925 24.8599 19.7316 24.0552 17.8418L23.9079 17.4927L24.0552 17.1435C24.8596 15.253 25.5249 13.2915 26.0444 11.2789L26.2383 10.5118L26.9281 10.7069C32.0571 12.164 35 14.6374 35 17.4927C35 20.3479 32.0571 22.8196 26.9281 24.2768L26.2383 24.4735ZM25.5223 17.4927C26.2223 19.1957 26.8013 20.8691 27.246 22.4853C31.1471 21.2527 33.5387 19.3694 33.5387 17.4927C33.5387 15.6143 31.1456 13.7326 27.246 12.5C26.7698 14.205 26.1939 15.8729 25.5223 17.4927ZM7.74375 12.4918L7.54979 11.7264C6.1075 6.01259 6.545 1.91818 8.75 0.488912C10.9127 -0.914135 14.385 0.742967 18.0235 4.94063L18.5194 5.51267L18.0235 6.08471C16.7307 7.59529 15.5494 9.22171 14.4915 10.9478L14.2946 11.2642L13.9519 11.297C12.0909 11.4618 10.2449 11.7962 8.43208 12.2968L7.74375 12.4918ZM10.5088 1.62479C10.1179 1.62479 9.77229 1.71986 9.48063 1.90835C8.03104 2.84754 7.77437 6.11257 8.77333 10.5184C10.3274 10.1298 11.9023 9.85552 13.4881 9.69722C14.4031 8.23498 15.4028 6.84203 16.4806 5.52742C14.2056 3.03767 12.0517 1.62479 10.5088 1.62479ZM24.4927 34.9996C24.4913 34.9996 24.4913 34.9996 24.4927 34.9996C22.4146 34.9996 19.7458 33.2409 16.9765 30.0447L16.4806 29.4726L16.9765 28.9006C18.269 27.3895 19.4498 25.7626 20.5071 24.0358L20.704 23.7195L21.0452 23.6867C22.9071 23.5227 24.7541 23.1889 26.5679 22.6885L27.2563 22.4935L27.4517 23.2606C28.891 28.9711 28.455 33.0671 26.25 34.4948C25.7144 34.8351 25.1079 35.0093 24.4927 34.9996ZM18.5194 29.4579C20.7944 31.9476 22.9483 33.3605 24.4913 33.3605C24.8806 33.3605 25.2292 33.2654 25.5194 33.077C26.969 32.1378 27.2271 28.8711 26.2267 24.4653C24.6722 24.8544 23.0968 25.1287 21.5104 25.2864C20.5965 26.7497 19.5973 28.1432 18.5194 29.4579ZM27.2563 12.4918L26.5679 12.2968C24.7544 11.7948 22.9073 11.4604 21.0452 11.297L20.704 11.2642L20.5071 10.9478C19.4503 9.22116 18.2695 7.59468 16.9765 6.08471L16.4806 5.51267L16.9765 4.94063C20.6135 0.744607 24.0844 -0.912496 26.25 0.488912C28.455 1.91818 28.8925 6.01259 27.4517 11.7248L27.2563 12.4918ZM21.5104 9.69722C23.1758 9.86769 24.7581 10.1447 26.2267 10.5184C27.2271 6.11257 26.969 2.84754 25.5194 1.90835C24.0785 0.972438 21.3704 2.40663 18.5194 5.52742C19.5967 6.84209 20.5959 8.23503 21.5104 9.69722ZM10.5088 34.9996C9.89304 35.0096 9.28603 34.8354 8.75 34.4948C6.545 33.0671 6.1075 28.9727 7.54979 23.2606L7.74229 22.4935L8.43063 22.6885C10.115 23.1655 11.9729 23.5015 13.9504 23.6867L14.2931 23.7195L14.4885 24.0358C15.5466 25.7623 16.7279 27.3893 18.0206 28.9006L18.5165 29.4726L18.0206 30.0447C15.2527 33.2409 12.584 34.9996 10.5088 34.9996ZM8.77333 24.4653C7.77292 28.8711 8.03104 32.1378 9.48063 33.077C10.92 33.9998 13.6267 32.577 16.4806 29.4579C15.4032 28.1423 14.4036 26.7488 13.4881 25.2864C11.9022 25.1288 10.3273 24.8545 8.77333 24.4653ZM17.5 25.4946C16.2998 25.4946 15.066 25.4356 13.8308 25.3209L13.4881 25.2881L13.2913 24.9717C12.5926 23.8434 11.9358 22.683 11.3225 21.4936C10.7111 20.3033 10.1438 19.0849 9.62208 17.8418L9.47771 17.4927L9.62208 17.1435C10.1437 15.9003 10.711 14.682 11.3225 13.4917C11.9263 12.3181 12.5898 11.1478 13.2913 10.0136L13.4881 9.69722L13.8308 9.66444C16.273 9.4317 18.7284 9.4317 21.1706 9.66444L21.5119 9.69722L21.7073 10.0136C23.1061 12.2707 24.3339 14.6557 25.3779 17.1435L25.5252 17.4927L25.3779 17.8418C24.3364 20.3311 23.1085 22.7163 21.7073 24.9717L21.5119 25.2881L21.1706 25.3209C19.9354 25.4356 18.7002 25.4946 17.5 25.4946ZM14.296 23.7179C16.4544 23.8998 18.5456 23.8998 20.7054 23.7179C21.9112 21.7366 22.9818 19.6556 23.9079 17.4927C22.9834 15.3284 21.9123 13.2472 20.704 11.2675C18.5711 11.0855 16.4289 11.0855 14.296 11.2675C13.0872 13.2468 12.016 15.3281 11.0921 17.4927C12.0192 19.6553 13.0903 21.7363 14.296 23.7179Z" fill="#252525"/>
</svg>
